<?xml version="1.0" standalone="no"?>
<!DOCTYPE svg PUBLIC "-//W3C//DTD SVG 20010904//EN"
 "http://www.w3.org/TR/2001/REC-SVG-20010904/DTD/svg10.dtd">
<svg version="1.0" xmlns="http://www.w3.org/2000/svg"
 width="1564.000000pt" height="504.000000pt" viewBox="0 0 1564.000000 504.000000"
 preserveAspectRatio="xMidYMid meet">

<g transform="translate(0.000000,504.000000) scale(0.100000,-0.100000)"
fill="#000000" stroke="none">
<path d="M2227 5025 c-261 -33 -638 -138 -629 -176 3 -14 281 -671 286 -676 1
-1 50 13 109 33 208 67 461 95 677 75 310 -30 581 -125 835 -295 54 -36 101
-66 105 -66 6 0 38 35 149 162 l32 36 -248 202 c-136 111 -249 205 -250 209
-2 3 74 60 167 126 93 66 170 123 170 127 0 8 -195 91 -294 125 -109 37 -287
81 -420 104 -158 27 -529 35 -689 14z"/>
<path d="M1280 4713 c-550 -314 -954 -806 -1154 -1406 -52 -155 -99 -378 -117
-551 -14 -148 -7 -462 15 -600 18 -110 63 -316 71 -324 6 -7 395 -61 438 -62
27 0 33 10 137 224 l109 225 -9 56 c-39 238 -11 547 71 797 41 128 156 354
237 468 133 187 328 368 526 489 l94 57 -145 339 c-79 187 -147 343 -151 347
-4 4 -59 -22 -122 -59z"/>
<path d="M3730 4599 c-52 -38 -96 -73 -98 -78 -1 -4 99 -90 223 -191 124 -100
225 -186 225 -189 0 -4 -70 -86 -155 -181 -85 -96 -155 -177 -155 -180 0 -3
28 -36 62 -75 147 -167 255 -340 331 -530 85 -214 116 -369 124 -621 l6 -181
361 -105 361 -105 7 26 c4 14 12 95 17 179 55 878 -365 1735 -1096 2233 -56
38 -105 69 -110 68 -4 0 -51 -32 -103 -70z"/>
<path d="M6043 3658 c-94 -258 -114 -303 -132 -306 -19 -3 -21 -10 -21 -63 l0
-59 62 0 c78 0 90 11 123 111 l27 79 123 0 123 0 27 -79 c33 -100 45 -111 123
-111 l62 0 0 59 c0 53 -2 60 -21 63 -16 2 -28 21 -50 83 -16 44 -66 180 -110
303 l-82 222 -72 0 -72 0 -110 -302z m267 -120 c0 -5 -39 -8 -86 -8 -66 0 -85
3 -82 13 2 8 21 70 43 139 l40 126 42 -132 c23 -72 43 -134 43 -138z"/>
<path d="M7550 3906 c0 -54 0 -55 33 -58 l32 -3 3 -307 2 -308 64 0 64 0 4
154 c3 138 5 158 24 183 50 68 128 92 175 54 23 -19 24 -25 27 -188 4 -208 1
-203 119 -203 l83 0 0 54 c0 54 0 55 -32 58 l-33 3 -5 150 c-3 83 -11 161 -17
175 -25 58 -84 90 -164 90 -62 0 -112 -20 -150 -61 l-29 -31 0 129 c0 162 -1
163 -118 163 l-82 0 0 -54z"/>
<path d="M10000 3906 c0 -54 0 -55 33 -58 l32 -3 3 -289 c3 -347 -5 -326 119
-326 l83 0 0 54 c0 54 0 55 -32 58 l-33 3 -3 289 c-3 347 5 326 -119 326 l-83
0 0 -54z"/>
<path d="M11660 3900 l0 -60 55 0 55 0 0 60 0 60 -55 0 -55 0 0 -60z"/>
<path d="M13000 3906 c0 -54 0 -55 33 -58 l32 -3 3 -289 c3 -347 -5 -326 119
-326 l83 0 0 54 c0 54 0 55 -32 58 l-33 3 -3 289 c-3 347 5 326 -119 326 l-83
0 0 -54z"/>
<path d="M6874 3746 c-17 -8 -45 -31 -62 -52 l-32 -39 0 28 c0 50 -30 67 -120
67 l-80 0 0 -54 c0 -54 0 -55 33 -58 l32 -3 3 -202 2 -203 64 0 64 0 3 143 c4
121 7 147 25 177 28 48 78 80 125 80 l39 0 0 65 0 65 -32 0 c-18 -1 -47 -7
-64 -14z"/>
<path d="M7200 3745 c-57 -18 -124 -75 -153 -129 -17 -33 -22 -58 -22 -126 0
-68 5 -93 22 -126 30 -56 94 -110 156 -130 98 -32 251 -1 309 63 16 18 16 21
-8 61 -26 43 -38 50 -50 31 -13 -22 -90 -49 -139 -49 -70 0 -115 26 -144 83
-33 66 -24 127 28 178 62 62 172 66 179 6 3 -26 6 -27 63 -27 l59 0 0 48 c0
54 -18 81 -70 108 -47 23 -170 28 -230 9z"/>
<path d="M8357 3747 c-60 -19 -87 -51 -87 -103 l0 -44 60 0 c54 0 60 2 60 20
0 35 73 52 123 29 25 -11 47 -47 47 -74 0 -11 -13 -15 -53 -15 -61 0 -159 -23
-202 -49 -73 -42 -98 -144 -52 -211 35 -52 70 -73 130 -78 68 -5 118 10 157
50 26 25 30 27 30 10 0 -38 31 -52 113 -52 l77 0 0 54 c0 54 0 55 -32 58 l-33
3 -5 145 c-5 150 -14 183 -57 222 -48 44 -189 62 -276 35z m203 -298 c0 -36
-41 -97 -77 -114 -64 -31 -134 11 -119 70 10 38 67 61 159 64 31 1 37 -2 37
-20z"/>
<path d="M8971 3743 c-94 -33 -161 -136 -161 -248 0 -168 130 -285 304 -273
65 4 172 46 182 72 3 8 -6 32 -20 54 l-26 41 -47 -27 c-92 -51 -198 -29 -238
48 -31 61 -33 60 166 60 l182 0 -5 70 c-4 54 -12 81 -34 117 -57 91 -185 128
-303 86z m170 -109 c10 -9 22 -29 28 -45 l10 -29 -115 0 c-62 0 -114 4 -114 9
0 17 44 64 74 77 37 17 91 11 117 -12z"/>
<path d="M9551 3738 c-229 -88 -227 -411 3 -497 199 -74 406 52 406 249 0 197
-210 325 -409 248z m185 -107 c60 -27 89 -73 89 -141 0 -42 -6 -63 -24 -89
-26 -36 -90 -71 -131 -71 -41 0 -105 35 -131 71 -33 47 -33 131 0 178 26 36
90 71 131 71 14 0 43 -9 66 -19z"/>
<path d="M10491 3738 c-229 -88 -227 -411 3 -497 199 -74 406 52 406 249 0
197 -210 325 -409 248z m185 -107 c60 -27 89 -73 89 -141 0 -68 -29 -114 -89
-141 -52 -23 -80 -23 -132 0 -60 27 -89 73 -89 141 0 42 6 63 24 89 26 36 90
71 131 71 14 0 43 -9 66 -19z"/>
<path d="M11100 3744 c-83 -36 -131 -112 -138 -220 -6 -96 16 -163 73 -220 78
-78 212 -88 283 -22 l22 21 0 -37 c0 -53 -24 -102 -59 -120 -37 -20 -141 -20
-194 -1 l-39 13 -13 -31 c-30 -74 -30 -74 22 -94 34 -13 74 -18 139 -18 81 0
97 3 149 30 45 23 66 42 90 79 l30 49 5 231 5 231 28 3 c26 3 27 6 27 58 l0
54 -74 0 c-68 0 -76 -2 -94 -25 -14 -17 -23 -22 -27 -14 -27 43 -167 62 -235
33z m174 -108 c42 -17 66 -67 66 -136 0 -101 -56 -160 -139 -146 -118 19 -147
234 -38 281 41 18 70 18 111 1z"/>
<path d="M12070 3745 c-57 -18 -124 -75 -153 -129 -17 -33 -22 -58 -22 -126 0
-68 5 -93 22 -126 30 -56 94 -110 156 -130 98 -32 251 -1 309 63 16 18 16 21
-8 61 -26 43 -38 50 -50 31 -13 -22 -90 -49 -139 -49 -70 0 -115 26 -144 83
-33 66 -24 127 28 178 62 62 172 66 179 6 3 -26 6 -27 63 -27 l59 0 0 48 c0
54 -18 81 -70 108 -47 23 -170 28 -230 9z"/>
<path d="M12577 3747 c-60 -19 -87 -51 -87 -103 l0 -44 60 0 c54 0 60 2 60 20
0 35 73 52 123 29 25 -11 47 -47 47 -74 0 -11 -13 -15 -53 -15 -61 0 -159 -23
-202 -49 -73 -42 -98 -144 -52 -211 35 -52 70 -73 130 -78 68 -5 118 10 157
50 26 25 30 27 30 10 0 -38 31 -52 113 -52 l77 0 0 54 c0 54 0 55 -32 58 l-33
3 -5 145 c-5 150 -14 183 -57 222 -48 44 -189 62 -276 35z m203 -298 c0 -36
-41 -97 -77 -114 -64 -31 -134 11 -119 70 10 38 67 61 159 64 31 1 37 -2 37
-20z"/>
<path d="M11580 3696 c0 -54 0 -55 33 -58 l32 -3 3 -184 c3 -227 0 -221 119
-221 l83 0 0 54 c0 54 0 55 -32 58 l-33 3 -3 184 c-3 227 0 221 -119 221 l-83
0 0 -54z"/>
<path d="M12320 2811 c-134 -44 -197 -169 -140 -280 26 -53 67 -84 181 -142
136 -68 162 -101 124 -156 -38 -55 -129 -51 -219 9 l-48 31 -34 -39 c-18 -21
-33 -46 -31 -54 4 -23 84 -78 139 -95 202 -60 380 69 338 244 -18 77 -58 115
-179 172 -58 28 -116 60 -128 72 -45 40 -15 115 46 119 83 4 131 -17 131 -57
0 -24 3 -25 61 -25 l61 0 -4 60 c-5 67 -21 91 -83 123 -44 22 -170 33 -215 18z"/>
<path d="M5920 2750 l0 -60 35 0 35 0 0 -245 0 -245 -35 0 -35 0 0 -60 0 -60
140 0 141 0 -3 58 -3 57 -37 3 -38 3 0 244 0 244 38 3 37 3 3 58 3 57 -141 0
-140 0 0 -60z"/>
<path d="M7097 2795 c-72 -25 -117 -87 -117 -160 0 -33 -2 -35 -36 -35 l-35 0
3 -52 c3 -52 4 -53 36 -56 l32 -3 0 -205 0 -204 65 0 65 0 0 205 0 205 55 0
55 0 0 55 0 55 -55 0 c-48 0 -55 3 -55 19 0 35 41 72 88 78 l42 6 0 53 0 54
-52 0 c-29 -1 -70 -7 -91 -15z"/>
<path d="M10330 2750 l0 -60 55 0 55 0 0 60 0 60 -55 0 -55 0 0 -60z"/>
<path d="M9947 2743 c-4 -3 -7 -37 -7 -75 l0 -68 -35 0 -35 0 0 -55 0 -55 35
0 35 0 0 -137 c0 -112 4 -145 19 -178 32 -71 91 -104 189 -105 l52 0 0 60 0
60 -37 0 c-76 1 -93 34 -93 184 l0 116 60 0 60 0 0 55 0 55 -60 0 -60 0 0 75
0 75 -58 0 c-32 0 -62 -3 -65 -7z"/>
<path d="M13817 2743 c-4 -3 -7 -37 -7 -75 l0 -68 -35 0 -35 0 0 -55 0 -55 35
0 35 0 0 -137 c0 -112 4 -145 19 -178 32 -71 91 -104 189 -105 l52 0 0 60 0
60 -37 0 c-76 1 -93 34 -93 184 l0 116 60 0 60 0 0 55 0 55 -60 0 -60 0 0 75
0 75 -58 0 c-32 0 -62 -3 -65 -7z"/>
<path d="M6532 2590 c-23 -10 -53 -31 -67 -46 -24 -26 -25 -26 -25 -5 0 44
-33 61 -120 61 l-80 0 0 -54 c0 -54 0 -55 33 -58 l32 -3 3 -202 2 -203 65 0
65 0 0 133 c0 72 5 149 10 169 19 68 108 121 175 104 45 -11 55 -50 55 -219 0
-189 -1 -187 118 -187 l82 0 0 54 c0 54 0 55 -32 58 l-33 3 -5 150 c-6 157
-13 186 -51 222 -51 47 -151 57 -227 23z"/>
<path d="M7441 2588 c-229 -88 -227 -411 3 -497 199 -74 406 52 406 249 0 197
-210 325 -409 248z m185 -107 c60 -27 89 -73 89 -141 0 -42 -6 -63 -24 -89
-26 -36 -90 -71 -131 -71 -41 0 -105 35 -131 71 -33 47 -33 131 0 178 26 36
90 71 131 71 14 0 43 -9 66 -19z"/>
<path d="M8184 2596 c-17 -8 -45 -31 -62 -52 l-32 -39 0 28 c0 50 -30 67 -120
67 l-80 0 0 -54 c0 -54 0 -55 33 -58 l32 -3 3 -202 2 -203 64 0 64 0 3 143 c4
121 7 147 25 177 28 48 78 80 125 80 l39 0 0 65 0 65 -32 0 c-18 -1 -47 -7
-64 -14z"/>
<path d="M8615 2596 c-17 -7 -45 -28 -63 -45 -29 -29 -32 -30 -32 -12 0 44
-33 61 -120 61 l-80 0 0 -54 c0 -54 0 -55 33 -58 l32 -3 3 -202 2 -203 65 0
65 0 0 128 c0 70 5 144 11 165 25 91 128 148 174 97 18 -20 20 -39 23 -206 l3
-184 64 0 63 0 4 148 c3 134 5 151 27 189 38 67 107 91 152 54 23 -19 24 -25
27 -188 4 -208 1 -203 119 -203 l83 0 0 54 c0 54 0 55 -32 58 l-33 3 -5 157
c-6 173 -11 188 -80 236 -66 44 -203 18 -252 -49 l-21 -28 -21 32 c-40 61
-138 85 -211 53z"/>
<path d="M9427 2597 c-60 -19 -87 -51 -87 -103 l0 -44 60 0 c54 0 60 2 60 20
0 35 73 52 123 29 25 -11 47 -47 47 -74 0 -11 -13 -15 -53 -15 -61 0 -159 -23
-202 -49 -73 -42 -98 -144 -52 -211 35 -52 70 -73 130 -78 68 -5 118 10 157
50 26 25 30 27 30 10 0 -38 31 -52 113 -52 l77 0 0 54 c0 54 0 55 -32 58 l-33
3 -5 145 c-5 150 -14 183 -57 222 -48 44 -189 62 -276 35z m203 -298 c0 -36
-41 -97 -77 -114 -64 -31 -134 11 -119 70 10 38 67 61 159 64 31 1 37 -2 37
-20z"/>
<path d="M10741 2588 c-229 -88 -227 -411 3 -497 199 -74 406 52 406 249 0
197 -210 325 -409 248z m185 -107 c60 -27 89 -73 89 -141 0 -68 -29 -114 -89
-141 -52 -23 -80 -23 -132 0 -60 27 -89 73 -89 141 0 42 6 63 24 89 26 36 90
71 131 71 14 0 43 -9 66 -19z"/>
<path d="M11482 2590 c-23 -10 -53 -31 -67 -46 -24 -26 -25 -26 -25 -5 0 44
-33 61 -120 61 l-80 0 0 -54 c0 -54 0 -55 33 -58 l32 -3 3 -202 2 -203 65 0
65 0 0 133 c0 72 5 149 10 169 19 68 108 121 175 104 45 -11 55 -50 55 -219 0
-189 -1 -187 118 -187 l82 0 0 54 c0 54 0 55 -32 58 l-33 3 -5 150 c-6 157
-13 186 -51 222 -51 47 -151 57 -227 23z"/>
<path d="M13386 2595 c-22 -8 -53 -28 -70 -45 -28 -27 -31 -37 -31 -90 0 -55
3 -62 35 -95 20 -19 71 -50 115 -70 91 -39 118 -59 113 -83 -5 -25 -52 -44
-93 -36 -19 3 -56 20 -81 37 l-47 31 -28 -35 c-16 -19 -29 -40 -29 -47 0 -17
85 -70 135 -83 54 -15 157 -6 197 18 55 32 80 79 76 141 -7 81 -26 97 -220
179 -48 20 -59 50 -28 75 12 10 34 18 49 18 32 0 71 -25 71 -46 0 -11 15 -14
61 -14 l62 0 -6 45 c-2 25 -12 54 -22 65 -41 45 -178 64 -259 35z"/>
<path d="M14291 2593 c-94 -33 -161 -136 -161 -248 0 -168 130 -285 304 -273
65 4 172 46 182 72 3 8 -6 32 -20 54 l-26 41 -47 -27 c-92 -51 -198 -29 -238
48 -31 61 -33 60 166 60 l182 0 -5 70 c-4 54 -12 81 -34 117 -57 91 -185 128
-303 86z m170 -109 c10 -9 22 -29 28 -45 l10 -29 -115 0 c-62 0 -114 4 -114 9
0 17 44 64 74 77 37 17 91 11 117 -12z"/>
<path d="M14975 2596 c-17 -7 -45 -28 -63 -45 -29 -29 -32 -30 -32 -12 0 44
-33 61 -120 61 l-80 0 0 -54 c0 -54 0 -55 33 -58 l32 -3 3 -202 2 -203 65 0
65 0 0 128 c0 70 5 144 11 165 25 91 128 148 174 97 18 -20 20 -39 23 -206 l3
-184 64 0 63 0 4 148 c3 134 5 151 27 189 38 67 107 91 152 54 23 -19 24 -25
27 -188 4 -208 1 -203 119 -203 l83 0 0 54 c0 54 0 55 -32 58 l-33 3 -5 157
c-6 173 -11 188 -80 236 -66 44 -203 18 -252 -49 l-21 -28 -21 32 c-40 61
-138 85 -211 53z"/>
<path d="M10250 2546 c0 -54 0 -55 33 -58 l32 -3 3 -184 c3 -227 0 -221 119
-221 l83 0 0 54 c0 54 0 55 -32 58 l-33 3 -3 184 c-3 227 0 221 -119 221 l-83
0 0 -54z"/>
<path d="M12680 2547 c0 -43 4 -54 21 -62 14 -7 48 -73 109 -210 l88 -200 -19
-37 c-32 -63 -83 -85 -125 -53 -29 22 -37 19 -62 -26 -27 -46 -20 -62 35 -86
72 -30 167 -8 222 51 14 14 71 143 132 293 89 222 111 269 128 271 18 3 21 10
21 58 l0 54 -63 0 c-49 0 -68 -4 -80 -18 -9 -10 -41 -89 -71 -176 -54 -156
-66 -184 -66 -154 0 28 -121 323 -137 336 -9 6 -43 12 -75 12 l-58 0 0 -53z"/>
<path d="M4255 2157 c-2 -7 -14 -50 -25 -97 -149 -594 -662 -1103 -1265 -1253
-176 -44 -241 -52 -448 -52 l-198 0 -90 -280 c-50 -154 -102 -315 -116 -358
-14 -43 -23 -80 -21 -82 2 -2 60 -12 128 -21 179 -23 546 -15 719 16 438 78
827 254 1166 527 129 104 330 311 426 438 140 187 256 394 340 605 45 116 114
348 106 357 -5 4 -522 157 -685 203 -24 6 -34 5 -37 -3z"/>
<path d="M766 1724 c-79 -162 -91 -183 -110 -179 -43 10 -480 65 -483 61 -2
-2 16 -48 40 -103 267 -608 782 -1100 1402 -1338 118 -45 263 -91 269 -84 6 6
226 694 226 705 0 6 -35 20 -77 33 -410 119 -771 389 -1001 746 -47 73 -162
301 -162 322 0 39 -25 1 -104 -163z"/>
<path d="M8523 1701 c-53 -14 -122 -60 -154 -104 -109 -151 -54 -375 110 -451
94 -43 247 -20 318 46 21 20 22 23 7 39 -16 17 -18 17 -48 -5 -34 -26 -114
-56 -150 -56 -60 0 -125 30 -169 80 -52 58 -72 118 -64 194 13 131 100 211
227 210 99 -1 160 -37 160 -95 0 -14 7 -19 25 -19 22 0 25 4 25 39 0 72 -74
119 -200 127 -30 2 -69 -1 -87 -5z"/>
<path d="M6513 1685 c-39 -17 -63 -52 -70 -105 -5 -34 -9 -40 -29 -40 -17 0
-24 -6 -24 -20 0 -15 7 -20 25 -20 l25 0 0 -185 0 -185 25 0 25 0 2 183 3 182
53 3 c44 3 52 6 52 23 0 16 -7 19 -56 19 l-56 0 7 33 c8 39 47 77 81 77 19 0
24 5 24 25 0 21 -5 25 -27 25 -16 -1 -42 -7 -60 -15z"/>
<path d="M7140 1675 c0 -20 5 -25 25 -25 l25 0 0 -260 0 -260 24 0 c24 0 24 1
28 123 4 136 19 182 69 218 33 23 87 34 123 25 45 -11 56 -50 56 -204 0 -94 4
-142 12 -150 7 -7 31 -12 55 -12 39 0 43 2 43 24 0 19 -6 25 -27 28 l-28 3 -5
146 c-6 167 -15 191 -79 210 -64 19 -126 4 -177 -43 l-44 -41 0 116 c0 127 0
127 -66 127 -30 0 -34 -3 -34 -25z"/>
<path d="M10140 1675 c0 -20 5 -25 25 -25 l25 0 0 -260 0 -260 24 0 c24 0 24
1 28 123 4 136 19 182 69 218 33 23 87 34 123 25 45 -11 56 -50 56 -204 0 -94
4 -142 12 -150 7 -7 31 -12 55 -12 39 0 43 2 43 24 0 19 -6 25 -27 28 l-28 3
-5 146 c-6 167 -15 191 -79 210 -64 19 -126 4 -177 -43 l-44 -41 0 116 c0 127
0 127 -66 127 -30 0 -34 -3 -34 -25z"/>
<path d="M10870 1676 c0 -21 5 -26 25 -26 l25 0 0 -260 0 -260 30 0 30 0 0
120 0 120 65 0 65 0 55 -110 c55 -111 73 -130 119 -130 21 0 26 5 26 25 0 18
-5 25 -20 25 -14 0 -32 26 -72 103 l-53 103 30 15 c44 22 77 92 72 152 -4 51
-26 88 -71 121 -24 19 -44 21 -177 24 l-149 3 0 -25z m289 -40 c34 -18 51 -54
51 -107 0 -33 -7 -48 -34 -75 -33 -33 -36 -34 -115 -34 l-81 0 0 115 0 115 75
0 c46 0 87 -6 104 -14z"/>
<path d="M12760 1675 c0 -20 5 -25 25 -25 l25 0 0 -260 0 -260 25 0 c21 0 25
5 25 31 l0 31 35 -30 c82 -73 207 -43 263 62 26 50 23 180 -6 234 -51 96 -177
121 -257 50 l-35 -30 0 99 c0 64 -4 103 -12 111 -7 7 -29 12 -50 12 -34 0 -38
-3 -38 -25z m296 -194 c88 -54 85 -249 -6 -296 -79 -41 -159 4 -181 101 -33
147 77 262 187 195z"/>
<path d="M13240 1675 c0 -20 5 -25 25 -25 l25 0 0 -248 c0 -180 3 -251 12
-260 7 -7 31 -12 55 -12 39 0 43 2 43 24 0 19 -6 25 -27 28 l-28 3 -3 250 c-2
184 -6 251 -15 257 -6 4 -29 8 -49 8 -34 0 -38 -3 -38 -25z"/>
<path d="M13500 1665 c0 -31 3 -35 25 -35 22 0 25 4 25 35 0 31 -3 35 -25 35
-22 0 -25 -4 -25 -35z"/>
<path d="M6920 1595 c0 -54 0 -55 -30 -55 -23 0 -30 -5 -30 -19 0 -14 8 -21
28 -23 l27 -3 5 -146 c4 -129 7 -150 25 -169 28 -31 68 -50 105 -50 25 0 30 4
30 25 0 20 -5 25 -26 25 -15 0 -38 12 -55 29 l-29 29 0 131 0 131 50 0 c43 0
50 3 50 20 0 17 -7 20 -50 20 l-50 0 0 55 c0 52 -1 55 -25 55 -24 0 -25 -3
-25 -55z"/>
<path d="M6068 1541 c-96 -31 -152 -107 -152 -207 0 -86 37 -147 113 -186 71
-37 131 -37 202 0 146 76 154 285 14 367 -48 29 -131 40 -177 26z m150 -68
c52 -39 67 -70 67 -138 0 -69 -15 -99 -69 -139 -39 -29 -133 -29 -172 0 -106
79 -95 238 21 290 40 19 120 12 153 -13z"/>
<path d="M7765 1531 c-92 -41 -137 -142 -114 -250 29 -136 190 -202 319 -130
34 19 37 24 28 44 l-10 21 -45 -23 c-89 -45 -184 -18 -223 62 -37 77 -40 75
141 75 l161 0 -7 53 c-4 28 -13 63 -20 77 -42 80 -142 112 -230 71z m143 -47
c13 -9 30 -31 38 -49 27 -65 27 -65 -109 -65 -68 0 -126 3 -130 6 -10 10 14
61 42 88 48 47 107 54 159 20z"/>
<path d="M9405 1531 c-92 -41 -137 -142 -114 -250 29 -136 190 -202 319 -130
34 19 37 24 28 44 l-10 21 -45 -23 c-89 -45 -184 -18 -223 62 -37 77 -40 75
141 75 l161 0 -7 53 c-4 28 -13 63 -20 77 -42 80 -142 112 -230 71z m143 -47
c13 -9 30 -31 38 -49 27 -65 27 -65 -109 -65 -68 0 -126 3 -130 6 -10 10 14
61 42 88 48 47 107 54 159 20z"/>
<path d="M9867 1540 c-157 -47 -192 -281 -56 -379 68 -50 174 -53 240 -8 36
25 43 36 30 55 -6 10 -18 7 -57 -13 -82 -44 -163 -26 -218 49 -30 39 -30 143
0 183 33 44 82 73 126 73 50 0 98 -25 98 -50 0 -15 7 -20 25 -20 21 0 25 5 25
30 0 17 -9 39 -19 49 -36 36 -129 50 -194 31z"/>
<path d="M11485 1531 c-92 -41 -137 -142 -114 -250 29 -136 190 -202 319 -130
34 19 37 24 28 44 l-10 21 -45 -23 c-89 -45 -184 -18 -223 62 -37 77 -40 75
141 75 l161 0 -7 53 c-4 28 -13 63 -20 77 -42 80 -142 112 -230 71z m143 -47
c13 -9 30 -31 38 -49 27 -65 27 -65 -109 -65 -68 0 -126 3 -130 6 -10 10 14
61 42 88 48 47 107 54 159 20z"/>
<path d="M11970 1539 c-14 -6 -37 -22 -52 -36 -26 -25 -28 -25 -28 -7 0 30
-20 44 -62 44 -34 0 -38 -3 -38 -25 0 -20 5 -25 25 -25 l25 0 0 -260 0 -260
25 0 25 0 0 111 0 111 35 -30 c62 -55 149 -55 211 0 54 48 68 82 69 173 0 67
-4 87 -25 125 -40 73 -136 108 -210 79z m116 -58 c41 -25 64 -77 64 -146 0
-108 -54 -170 -140 -162 -83 9 -133 100 -111 206 21 104 107 151 187 102z"/>
<path d="M13797 1540 c-157 -47 -192 -281 -56 -379 68 -50 174 -53 240 -8 36
25 43 36 30 55 -6 10 -18 7 -57 -13 -82 -44 -163 -26 -218 49 -30 39 -30 143
0 183 33 44 82 73 126 73 50 0 98 -25 98 -50 0 -15 7 -20 25 -20 21 0 25 5 25
30 0 17 -9 39 -19 49 -36 36 -129 50 -194 31z"/>
<path d="M8892 1528 c-7 -7 -12 -29 -12 -50 0 -34 3 -38 25 -38 20 0 25 5 25
25 l0 25 100 0 100 0 -125 -159 c-70 -89 -125 -168 -125 -180 0 -20 4 -21 158
-21 110 0 162 4 170 12 7 7 12 29 12 50 0 34 -3 38 -25 38 -20 0 -25 -5 -25
-25 l0 -25 -110 0 -109 0 124 158 c74 93 125 166 125 180 0 22 -1 22 -148 22
-102 0 -152 -4 -160 -12z"/>
<path d="M12270 1515 c0 -20 5 -25 25 -25 l25 0 0 -130 c0 -180 23 -227 113
-237 60 -7 111 11 152 54 l35 36 0 -29 c0 -40 16 -54 62 -54 34 0 38 3 38 25
0 20 -5 25 -25 25 l-25 0 0 180 0 180 -24 0 c-24 0 -24 -1 -27 -122 -4 -134
-20 -183 -71 -221 -36 -27 -102 -34 -132 -13 -35 23 -46 73 -46 217 0 140 0
139 -66 139 -30 0 -34 -3 -34 -25z"/>
<path d="M13440 1516 c0 -19 6 -25 28 -28 l27 -3 3 -170 c2 -120 6 -171 15
-177 6 -4 29 -8 50 -8 33 0 37 3 37 25 0 20 -5 25 -25 25 l-25 0 0 168 c0 117
-4 172 -12 180 -7 7 -31 12 -55 12 -39 0 -43 -2 -43 -24z"/>
</g>
</svg>
