<?xml version="1.0" encoding="UTF-8"?>
<svg xmlns="http://www.w3.org/2000/svg" xmlns:xlink="http://www.w3.org/1999/xlink" width="150px" height="39px" viewBox="0 0 150 39" version="1.1">
<g id="surface1">
<path style=" stroke:none;fill-rule:nonzero;fill:rgb(13.725491%,12.156863%,12.54902%);fill-opacity:1;" d="M 45.375 11.847656 L 42.527344 11.847656 L 42.527344 16.242188 L 45.375 16.242188 Z M 45.375 11.847656 "/>
<path style=" stroke:none;fill-rule:nonzero;fill:rgb(13.725491%,12.156863%,12.54902%);fill-opacity:1;" d="M 51.496094 11.847656 L 51.496094 21.75 C 51.496094 23.609375 50.417969 24.734375 48.433594 24.734375 L 48.433594 27.285156 C 52.144531 27.285156 54.34375 25.125 54.34375 21.664062 L 54.34375 11.847656 Z M 51.496094 11.847656 "/>
<path style=" stroke:none;fill-rule:nonzero;fill:rgb(13.725491%,12.156863%,12.54902%);fill-opacity:1;" d="M 18.144531 21.015625 L 16.035156 21.015625 L 18.035156 12.792969 L 18.25 12.792969 L 19.089844 16.242188 L 21.855469 16.242188 L 20.730469 11.847656 L 15.558594 11.847656 L 11.8125 26.484375 L 11.8125 26.984375 L 14.578125 26.984375 L 15.402344 23.609375 L 18.144531 23.609375 Z M 18.144531 21.015625 "/>
<path style=" stroke:none;fill-rule:nonzero;fill:rgb(13.725491%,12.156863%,12.54902%);fill-opacity:1;" d="M 67.234375 19.460938 L 67.234375 19.242188 C 68.3125 18.917969 69.691406 18.074219 69.691406 15.871094 C 69.691406 13.40625 67.882812 11.847656 65.25 11.847656 L 58.4375 11.847656 L 58.4375 16.242188 L 61.285156 16.242188 L 61.285156 14.441406 L 64.949219 14.441406 C 66.15625 14.441406 66.976562 15.136719 66.976562 16.257812 C 66.976562 17.382812 66.15625 18.074219 64.949219 18.074219 L 64.109375 18.074219 L 64.109375 20.671875 L 64.992188 20.671875 C 66.242188 20.671875 67.0625 21.363281 67.0625 22.53125 C 67.0625 23.699219 66.242188 24.390625 64.992188 24.390625 L 64.109375 24.390625 L 64.109375 26.984375 L 65.335938 26.984375 C 67.925781 26.984375 69.777344 25.425781 69.777344 22.875 C 69.777344 20.625 68.3125 19.761719 67.234375 19.460938 "/>
<path style=" stroke:none;fill-rule:nonzero;fill:rgb(13.725491%,12.156863%,12.54902%);fill-opacity:1;" d="M 54.339844 9.253906 L 48.433594 9.253906 L 48.433594 7.539062 L 54.339844 7.539062 Z M 54.339844 9.253906 "/>
<path style=" stroke:none;fill-rule:nonzero;fill:rgb(13.725491%,12.156863%,12.54902%);fill-opacity:1;" d="M 27.574219 22.589844 L 30.417969 22.589844 L 30.417969 26.984375 L 27.574219 26.984375 Z M 27.574219 22.589844 "/>
<path style=" stroke:none;fill-rule:nonzero;fill:rgb(13.725491%,12.156863%,12.54902%);fill-opacity:1;" d="M 39.042969 16.605469 C 39.042969 13.730469 37.058594 11.847656 34.214844 11.847656 L 27.574219 11.847656 L 27.574219 16.242188 L 30.417969 16.242188 L 30.417969 14.441406 L 33.933594 14.441406 C 35.292969 14.441406 36.199219 15.285156 36.199219 16.605469 C 36.199219 17.925781 35.292969 18.789062 33.933594 18.789062 L 32.957031 18.789062 L 32.957031 21.480469 L 35.660156 26.984375 L 38.605469 26.984375 L 38.605469 26.488281 L 35.765625 21.144531 C 37.726562 20.582031 39.042969 18.917969 39.042969 16.605469 "/>
<path style=" stroke:none;fill-rule:nonzero;fill:rgb(13.725491%,12.156863%,12.54902%);fill-opacity:1;" d="M 78.128906 14.441406 L 79.558594 19.089844 L 78.875 19.089844 L 78.53125 17.960938 L 76.707031 17.960938 L 76.359375 19.089844 L 75.6875 19.089844 L 77.117188 14.441406 Z M 78.367188 17.363281 L 77.652344 15.015625 L 77.585938 15.015625 L 76.871094 17.363281 Z M 78.367188 17.363281 "/>
<path style=" stroke:none;fill-rule:nonzero;fill:rgb(13.725491%,12.156863%,12.54902%);fill-opacity:1;" d="M 80.742188 16.269531 L 80.804688 16.269531 C 80.933594 15.941406 81.191406 15.816406 81.621094 15.816406 L 82.023438 15.816406 L 82.023438 16.355469 L 81.515625 16.355469 C 81.058594 16.355469 80.753906 16.601562 80.753906 17.125 L 80.753906 19.089844 L 80.132812 19.089844 L 80.132812 15.828125 L 80.742188 15.828125 Z M 80.742188 16.269531 "/>
<path style=" stroke:none;fill-rule:nonzero;fill:rgb(13.725491%,12.156863%,12.54902%);fill-opacity:1;" d="M 83.957031 15.738281 C 84.835938 15.738281 85.390625 16.289062 85.515625 16.984375 L 84.910156 17.109375 C 84.855469 16.640625 84.519531 16.289062 83.960938 16.289062 C 83.351562 16.289062 82.898438 16.753906 82.898438 17.460938 C 82.898438 18.167969 83.359375 18.632812 83.960938 18.632812 C 84.542969 18.632812 84.847656 18.285156 84.933594 17.800781 L 85.539062 17.941406 C 85.378906 18.644531 84.847656 19.183594 83.957031 19.183594 C 83.015625 19.183594 82.265625 18.472656 82.265625 17.460938 C 82.265625 16.449219 83.015625 15.738281 83.957031 15.738281 "/>
<path style=" stroke:none;fill-rule:nonzero;fill:rgb(13.725491%,12.156863%,12.54902%);fill-opacity:1;" d="M 86.832031 14.441406 L 86.832031 16.328125 L 86.898438 16.328125 C 87.046875 16.054688 87.34375 15.769531 87.984375 15.769531 C 88.714844 15.769531 89.261719 16.273438 89.261719 17.125 L 89.261719 19.089844 L 88.648438 19.089844 L 88.648438 17.15625 C 88.648438 16.558594 88.328125 16.289062 87.808594 16.289062 C 87.222656 16.289062 86.832031 16.6875 86.832031 17.429688 L 86.832031 19.089844 L 86.210938 19.089844 L 86.210938 14.441406 Z M 86.832031 14.441406 "/>
<path style=" stroke:none;fill-rule:nonzero;fill:rgb(13.725491%,12.156863%,12.54902%);fill-opacity:1;" d="M 91.566406 15.738281 C 92.492188 15.738281 93.136719 16.367188 93.136719 17.371094 L 93.136719 17.675781 L 90.574219 17.675781 C 90.613281 18.238281 91.023438 18.636719 91.613281 18.636719 C 92.144531 18.636719 92.40625 18.351562 92.566406 18.035156 L 93.082031 18.324219 C 92.882812 18.664062 92.507812 19.183594 91.613281 19.183594 C 90.609375 19.183594 89.9375 18.4375 89.9375 17.4375 C 89.9375 16.441406 90.621094 15.738281 91.566406 15.738281 M 92.5 17.171875 C 92.46875 16.605469 92.101562 16.28125 91.566406 16.28125 C 91.003906 16.28125 90.648438 16.625 90.582031 17.171875 Z M 92.5 17.171875 "/>
<path style=" stroke:none;fill-rule:nonzero;fill:rgb(13.725491%,12.156863%,12.54902%);fill-opacity:1;" d="M 95.453125 15.738281 C 96.433594 15.738281 97.132812 16.421875 97.132812 17.460938 C 97.132812 18.5 96.433594 19.183594 95.453125 19.183594 C 94.472656 19.183594 93.777344 18.5 93.777344 17.460938 C 93.777344 16.421875 94.472656 15.738281 95.453125 15.738281 M 95.453125 18.632812 C 96.082031 18.632812 96.511719 18.171875 96.511719 17.460938 C 96.511719 16.746094 96.082031 16.289062 95.453125 16.289062 C 94.824219 16.289062 94.402344 16.757812 94.402344 17.460938 C 94.402344 18.1875 94.824219 18.632812 95.453125 18.632812 "/>
<path style=" stroke:none;fill-rule:nonzero;fill:rgb(13.725491%,12.156863%,12.54902%);fill-opacity:1;" d="M 98.472656 19.089844 L 97.847656 19.089844 L 97.847656 14.441406 L 98.472656 14.441406 Z M 98.472656 19.089844 "/>
<path style=" stroke:none;fill-rule:nonzero;fill:rgb(13.725491%,12.156863%,12.54902%);fill-opacity:1;" d="M 100.851562 15.738281 C 101.832031 15.738281 102.535156 16.421875 102.535156 17.460938 C 102.535156 18.5 101.832031 19.183594 100.851562 19.183594 C 99.875 19.183594 99.179688 18.5 99.179688 17.460938 C 99.179688 16.421875 99.875 15.738281 100.851562 15.738281 M 100.851562 18.632812 C 101.480469 18.632812 101.910156 18.171875 101.910156 17.460938 C 101.910156 16.746094 101.480469 16.289062 100.851562 16.289062 C 100.222656 16.289062 99.800781 16.757812 99.800781 17.460938 C 99.800781 18.1875 100.222656 18.632812 100.851562 18.632812 "/>
<path style=" stroke:none;fill-rule:nonzero;fill:rgb(13.725491%,12.156863%,12.54902%);fill-opacity:1;" d="M 106.488281 15.828125 L 106.488281 18.917969 C 106.488281 19.9375 105.820312 20.507812 104.820312 20.507812 C 103.835938 20.507812 103.34375 19.9375 103.1875 19.460938 L 103.75 19.230469 C 103.867188 19.613281 104.179688 19.976562 104.808594 19.976562 C 105.445312 19.976562 105.867188 19.613281 105.867188 18.890625 L 105.867188 18.503906 L 105.800781 18.503906 C 105.617188 18.796875 105.273438 19.09375 104.636719 19.09375 C 103.816406 19.09375 103.128906 18.4375 103.128906 17.417969 C 103.128906 16.402344 103.816406 15.738281 104.636719 15.738281 C 105.273438 15.738281 105.617188 16.027344 105.8125 16.355469 L 105.878906 16.355469 L 105.878906 15.828125 Z M 105.875 17.417969 C 105.875 16.71875 105.421875 16.28125 104.808594 16.28125 C 104.191406 16.28125 103.753906 16.71875 103.753906 17.417969 C 103.753906 18.121094 104.191406 18.558594 104.808594 18.558594 C 105.421875 18.558594 105.875 18.113281 105.875 17.417969 "/>
<path style=" stroke:none;fill-rule:nonzero;fill:rgb(13.725491%,12.156863%,12.54902%);fill-opacity:1;" d="M 107.703125 14.363281 C 107.980469 14.363281 108.1875 14.5625 108.1875 14.839844 C 108.1875 15.113281 107.980469 15.3125 107.703125 15.3125 C 107.429688 15.3125 107.226562 15.113281 107.226562 14.839844 C 107.226562 14.5625 107.429688 14.363281 107.703125 14.363281 M 108.015625 19.089844 L 107.390625 19.089844 L 107.390625 15.832031 L 108.015625 15.832031 Z M 108.015625 19.089844 "/>
<path style=" stroke:none;fill-rule:nonzero;fill:rgb(13.725491%,12.156863%,12.54902%);fill-opacity:1;" d="M 110.382812 15.738281 C 111.261719 15.738281 111.816406 16.289062 111.945312 16.984375 L 111.335938 17.109375 C 111.28125 16.640625 110.945312 16.289062 110.386719 16.289062 C 109.777344 16.289062 109.324219 16.753906 109.324219 17.460938 C 109.324219 18.167969 109.785156 18.632812 110.386719 18.632812 C 110.96875 18.632812 111.273438 18.285156 111.359375 17.800781 L 111.964844 17.941406 C 111.804688 18.644531 111.273438 19.183594 110.382812 19.183594 C 109.441406 19.183594 108.695312 18.472656 108.695312 17.460938 C 108.695312 16.449219 109.441406 15.738281 110.382812 15.738281 "/>
<path style=" stroke:none;fill-rule:nonzero;fill:rgb(13.725491%,12.156863%,12.54902%);fill-opacity:1;" d="M 114.304688 17.144531 L 115.800781 19.089844 L 115.039062 19.089844 L 113.863281 17.53125 L 113.261719 18.054688 L 113.261719 19.089844 L 112.636719 19.089844 L 112.636719 14.441406 L 113.261719 14.441406 L 113.261719 17.289062 L 114.90625 15.828125 L 115.828125 15.828125 Z M 114.304688 17.144531 "/>
<path style=" stroke:none;fill-rule:nonzero;fill:rgb(13.725491%,12.156863%,12.54902%);fill-opacity:1;" d="M 119.585938 15.828125 L 117.699219 20.417969 L 117.023438 20.417969 L 117.539062 19.214844 L 116.15625 15.828125 L 116.832031 15.828125 L 117.835938 18.378906 L 117.902344 18.378906 L 118.910156 15.828125 Z M 118.035156 15.304688 L 117.464844 15.304688 L 117.835938 14.441406 L 118.570312 14.441406 Z M 118.035156 15.304688 "/>
<path style=" stroke:none;fill-rule:nonzero;fill:rgb(13.725491%,12.156863%,12.54902%);fill-opacity:1;" d="M 126.847656 15.738281 C 127.574219 15.738281 128.050781 16.09375 128.1875 16.667969 L 127.621094 16.832031 C 127.527344 16.394531 127.242188 16.226562 126.847656 16.226562 C 126.449219 16.226562 126.203125 16.394531 126.203125 16.667969 C 126.203125 16.953125 126.449219 17.070312 126.820312 17.136719 L 127.097656 17.175781 C 127.785156 17.296875 128.308594 17.496094 128.308594 18.152344 C 128.308594 18.804688 127.777344 19.183594 126.976562 19.183594 C 126.15625 19.183594 125.574219 18.808594 125.457031 18.046875 L 126.039062 17.902344 C 126.136719 18.5 126.523438 18.691406 126.976562 18.691406 C 127.433594 18.691406 127.707031 18.492188 127.707031 18.191406 C 127.707031 17.90625 127.453125 17.78125 127.003906 17.707031 L 126.726562 17.660156 C 126.097656 17.550781 125.59375 17.304688 125.59375 16.699219 C 125.59375 16.09375 126.085938 15.738281 126.847656 15.738281 "/>
<path style=" stroke:none;fill-rule:nonzero;fill:rgb(13.725491%,12.156863%,12.54902%);fill-opacity:1;" d="M 128.582031 15.828125 L 129.519531 15.828125 L 129.519531 14.714844 L 130.144531 14.714844 L 130.144531 15.828125 L 131.148438 15.828125 L 131.148438 16.339844 L 130.144531 16.339844 L 130.144531 18.378906 C 130.144531 18.511719 130.210938 18.578125 130.328125 18.578125 L 131.023438 18.578125 L 131.023438 19.089844 L 130.125 19.089844 C 129.761719 19.089844 129.519531 18.851562 129.519531 18.476562 L 129.519531 16.339844 L 128.582031 16.339844 Z M 128.582031 15.828125 "/>
<path style=" stroke:none;fill-rule:nonzero;fill:rgb(13.725491%,12.156863%,12.54902%);fill-opacity:1;" d="M 133.113281 15.738281 C 133.949219 15.738281 134.457031 16.1875 134.457031 16.972656 L 134.457031 19.089844 L 133.863281 19.089844 L 133.863281 18.652344 L 133.785156 18.652344 C 133.664062 18.871094 133.414062 19.183594 132.785156 19.183594 C 132.109375 19.183594 131.585938 18.808594 131.585938 18.152344 C 131.585938 17.484375 132.109375 17.144531 132.816406 17.144531 L 133.847656 17.144531 L 133.847656 16.933594 C 133.847656 16.527344 133.605469 16.25 133.109375 16.25 C 132.617188 16.25 132.355469 16.519531 132.273438 16.890625 L 131.691406 16.707031 C 131.851562 16.175781 132.289062 15.738281 133.113281 15.738281 M 132.890625 18.671875 C 133.457031 18.671875 133.847656 18.304688 133.847656 17.714844 L 133.847656 17.648438 L 132.851562 17.648438 C 132.464844 17.648438 132.207031 17.820312 132.207031 18.140625 C 132.207031 18.457031 132.464844 18.671875 132.890625 18.671875 "/>
<path style=" stroke:none;fill-rule:nonzero;fill:rgb(13.725491%,12.156863%,12.54902%);fill-opacity:1;" d="M 135.539062 15.828125 L 136.480469 18.539062 L 136.546875 18.539062 L 137.492188 15.828125 L 138.167969 15.828125 L 136.960938 19.089844 L 136.0625 19.089844 L 134.863281 15.828125 Z M 135.539062 15.828125 "/>
<path style=" stroke:none;fill-rule:nonzero;fill:rgb(13.725491%,12.156863%,12.54902%);fill-opacity:1;" d="M 78.128906 22.335938 L 79.558594 26.984375 L 78.875 26.984375 L 78.53125 25.855469 L 76.707031 25.855469 L 76.359375 26.984375 L 75.6875 26.984375 L 77.117188 22.335938 Z M 78.367188 25.257812 L 77.652344 22.910156 L 77.585938 22.910156 L 76.871094 25.257812 Z M 78.367188 25.257812 "/>
<path style=" stroke:none;fill-rule:nonzero;fill:rgb(13.725491%,12.156863%,12.54902%);fill-opacity:1;" d="M 80.03125 22.335938 L 81.257812 26.414062 L 81.324219 26.414062 L 82.546875 22.335938 L 83.230469 22.335938 L 81.800781 26.984375 L 80.78125 26.984375 L 79.359375 22.335938 Z M 80.03125 22.335938 "/>
<path style=" stroke:none;fill-rule:nonzero;fill:rgb(13.725491%,12.156863%,12.54902%);fill-opacity:1;" d="M 85.367188 24.148438 C 85.367188 22.933594 86.085938 22.246094 87.226562 22.246094 C 88.351562 22.246094 88.984375 22.894531 88.984375 23.910156 L 88.984375 24.015625 L 88.332031 24.015625 L 88.332031 23.902344 C 88.332031 23.28125 87.945312 22.828125 87.226562 22.828125 C 86.472656 22.828125 86.019531 23.328125 86.019531 24.136719 L 86.019531 25.183594 C 86.019531 25.996094 86.476562 26.492188 87.226562 26.492188 C 87.964844 26.492188 88.332031 26.046875 88.332031 25.425781 L 88.332031 25.269531 L 88.984375 25.269531 L 88.984375 25.417969 C 88.984375 26.433594 88.324219 27.078125 87.226562 27.078125 C 86.074219 27.078125 85.367188 26.386719 85.367188 25.171875 Z M 88.257812 21.128906 L 87.609375 21.894531 L 86.835938 21.894531 L 86.191406 21.128906 L 86.839844 21.128906 L 87.1875 21.558594 L 87.257812 21.558594 L 87.609375 21.128906 Z M 88.257812 21.128906 "/>
<path style=" stroke:none;fill-rule:nonzero;fill:rgb(13.725491%,12.156863%,12.54902%);fill-opacity:1;" d="M 92.191406 25.09375 L 93.203125 26.984375 L 92.453125 26.984375 L 91.507812 25.125 L 90.535156 25.125 L 90.535156 26.984375 L 89.882812 26.984375 L 89.882812 22.335938 L 91.828125 22.335938 C 92.671875 22.335938 93.289062 22.867188 93.289062 23.730469 C 93.289062 24.460938 92.832031 24.960938 92.191406 25.09375 M 90.535156 24.542969 L 91.761719 24.542969 C 92.304688 24.542969 92.632812 24.234375 92.632812 23.730469 C 92.632812 23.234375 92.304688 22.929688 91.761719 22.929688 L 90.535156 22.929688 Z M 90.535156 24.542969 "/>
<path style=" stroke:none;fill-rule:nonzero;fill:rgb(13.725491%,12.156863%,12.54902%);fill-opacity:1;" d="M 98.96875 22.335938 C 99.761719 22.335938 100.332031 22.808594 100.332031 23.558594 C 100.332031 24.222656 99.902344 24.507812 99.558594 24.605469 L 99.558594 24.675781 C 99.902344 24.773438 100.351562 25.066406 100.351562 25.734375 C 100.351562 26.519531 99.769531 26.984375 98.976562 26.984375 L 96.988281 26.984375 L 96.988281 22.335938 Z M 97.644531 24.347656 L 98.910156 24.347656 C 99.398438 24.347656 99.703125 24.0625 99.703125 23.632812 C 99.703125 23.214844 99.386719 22.929688 98.902344 22.929688 L 97.644531 22.929688 Z M 97.644531 26.394531 L 98.914062 26.394531 C 99.417969 26.394531 99.714844 26.09375 99.714844 25.664062 C 99.714844 25.21875 99.417969 24.945312 98.902344 24.945312 L 97.644531 24.945312 Z M 97.644531 26.394531 "/>
<path style=" stroke:none;fill-rule:nonzero;fill:rgb(13.725491%,12.156863%,12.54902%);fill-opacity:1;" d="M 101.753906 24.164062 L 101.820312 24.164062 C 101.945312 23.835938 102.203125 23.710938 102.632812 23.710938 L 103.035156 23.710938 L 103.035156 24.25 L 102.527344 24.25 C 102.070312 24.25 101.765625 24.496094 101.765625 25.019531 L 101.765625 26.984375 L 101.144531 26.984375 L 101.144531 23.726562 L 101.753906 23.726562 Z M 101.753906 24.164062 "/>
<path style=" stroke:none;fill-rule:nonzero;fill:rgb(13.725491%,12.156863%,12.54902%);fill-opacity:1;" d="M 104.203125 23.722656 L 104.203125 24.25 L 104.269531 24.25 C 104.417969 23.957031 104.726562 23.664062 105.367188 23.664062 C 106.097656 23.664062 106.644531 24.167969 106.644531 25.019531 L 106.644531 26.984375 L 106.03125 26.984375 L 106.03125 25.050781 C 106.03125 24.453125 105.710938 24.183594 105.191406 24.183594 C 104.609375 24.183594 104.21875 24.582031 104.21875 25.324219 L 104.21875 26.984375 L 103.59375 26.984375 L 103.59375 23.722656 Z M 104.203125 23.722656 "/>
<path style=" stroke:none;fill-rule:nonzero;fill:rgb(13.725491%,12.156863%,12.54902%);fill-opacity:1;" d="M 108.996094 23.632812 C 109.976562 23.632812 110.679688 24.316406 110.679688 25.359375 C 110.679688 26.394531 109.976562 27.078125 108.996094 27.078125 C 108.019531 27.078125 107.324219 26.394531 107.324219 25.359375 C 107.324219 24.316406 108.019531 23.632812 108.996094 23.632812 M 108.996094 26.527344 C 109.625 26.527344 110.054688 26.066406 110.054688 25.359375 C 110.054688 24.640625 109.625 24.183594 108.996094 24.183594 C 108.367188 24.183594 107.945312 24.652344 107.945312 25.359375 C 107.945312 26.082031 108.367188 26.527344 108.996094 26.527344 "/>
<path style=" stroke:none;fill-rule:nonzero;fill:rgb(13.725491%,12.156863%,12.54902%);fill-opacity:1;" d="M 124.160156 19.089844 L 124.160156 18.566406 L 124.097656 18.566406 C 123.949219 18.855469 123.640625 19.148438 122.996094 19.148438 C 122.269531 19.148438 121.71875 18.644531 121.71875 17.792969 L 121.71875 15.832031 L 122.335938 15.832031 L 122.335938 17.761719 C 122.335938 18.359375 122.652344 18.628906 123.175781 18.628906 C 123.757812 18.628906 124.148438 18.234375 124.148438 17.488281 L 124.148438 15.832031 L 124.769531 15.832031 L 124.769531 19.089844 Z M 123.949219 14.441406 L 123.414062 15.304688 L 122.84375 15.304688 L 123.214844 14.441406 Z M 123.949219 14.441406 "/>
<path style=" stroke:none;fill-rule:nonzero;fill:rgb(13.725491%,12.156863%,12.54902%);fill-opacity:1;" d="M 94.34375 26.039062 C 94.640625 26.039062 94.855469 26.246094 94.855469 26.566406 L 94.855469 27.03125 C 94.855469 27.496094 94.601562 27.792969 94.09375 27.792969 L 93.921875 27.792969 L 93.921875 27.421875 L 94.113281 27.421875 C 94.332031 27.421875 94.429688 27.308594 94.429688 27.101562 L 94.429688 27.03125 L 94.335938 27.03125 C 94.046875 27.03125 93.832031 26.824219 93.832031 26.546875 C 93.832031 26.246094 94.046875 26.039062 94.34375 26.039062 "/>
</g>
</svg>
